<svg width="20" height="20" viewBox="0 0 20 20" fill="none" xmlns="http://www.w3.org/2000/svg">
<g clip-path="url(#clip0_657_58180)">
<g clip-path="url(#clip1_657_58180)">
<path d="M15.8255 16.6693H4.15885C3.71683 16.6693 3.2929 16.4937 2.98034 16.1811C2.66778 15.8686 2.49219 15.4446 2.49219 15.0026V7.5026C2.49219 7.06058 2.66778 6.63665 2.98034 6.32409C3.2929 6.01153 3.71683 5.83594 4.15885 5.83594H15.8255C16.2675 5.83594 16.6915 6.01153 17.004 6.32409C17.3166 6.63665 17.4922 7.06058 17.4922 7.5026V15.0026C17.4922 15.4446 17.3166 15.8686 17.004 16.1811C16.6915 16.4937 16.2675 16.6693 15.8255 16.6693Z" stroke="#FAFAFA"/>
<path d="M13.7448 11.6693C13.6343 11.6693 13.5283 11.6254 13.4502 11.5472C13.372 11.4691 13.3281 11.3631 13.3281 11.2526C13.3281 11.1421 13.372 11.0361 13.4502 10.958C13.5283 10.8798 13.6343 10.8359 13.7448 10.8359C13.8553 10.8359 13.9613 10.8798 14.0394 10.958C14.1176 11.0361 14.1615 11.1421 14.1615 11.2526C14.1615 11.3631 14.1176 11.4691 14.0394 11.5472C13.9613 11.6254 13.8553 11.6693 13.7448 11.6693Z" fill="#FAFAFA" stroke="#FAFAFA" stroke-linecap="round" stroke-linejoin="round"/>
<path d="M14.9922 5.83428V4.67011C14.9921 4.41469 14.9333 4.16271 14.8204 3.93362C14.7075 3.70453 14.5434 3.50447 14.3408 3.34887C14.1383 3.19327 13.9027 3.08631 13.6522 3.03624C13.4018 2.98617 13.1432 2.99434 12.8964 3.06011L3.72969 5.50428C3.37473 5.59887 3.06097 5.80808 2.83718 6.09938C2.61339 6.39069 2.49211 6.74777 2.49219 7.11511V7.50094" stroke="#FAFAFA"/>
</g>
</g>
<defs>
<clipPath id="clip0_657_58180">
<rect width="20" height="20" fill="white"/>
</clipPath>
<clipPath id="clip1_657_58180">
<rect width="20" height="20" fill="white" transform="translate(-0.0078125)"/>
</clipPath>
</defs>
</svg>
