<svg width="20" height="20" viewBox="0 0 20 20" fill="none" xmlns="http://www.w3.org/2000/svg">
<path d="M10 6.66797V10.0013L12.0833 12.0846" stroke="#FAFAFA" stroke-width="1.5" stroke-linecap="round" stroke-linejoin="round"/>
<path d="M3.61548 5.72594L2.99048 5.72844C2.99114 5.8932 3.05682 6.05102 3.17324 6.1676C3.28966 6.28417 3.4474 6.35007 3.61215 6.35094L3.61548 5.72594ZM5.73382 6.36094C5.81589 6.36133 5.89724 6.34554 5.97322 6.31449C6.04919 6.28343 6.11831 6.23771 6.17661 6.17995C6.23492 6.12218 6.28128 6.0535 6.31304 5.97782C6.34481 5.90213 6.36135 5.82094 6.36173 5.73886C6.36212 5.65678 6.34633 5.57544 6.31527 5.49946C6.28422 5.42349 6.2385 5.35437 6.18074 5.29607C6.12297 5.23776 6.05429 5.1914 5.97861 5.15964C5.90292 5.12787 5.82173 5.11133 5.73965 5.11094L5.73382 6.36094ZM4.22965 3.60094C4.22921 3.51887 4.21261 3.43768 4.1808 3.36202C4.14899 3.28636 4.10258 3.21771 4.04423 3.15998C3.98589 3.10225 3.91674 3.05658 3.84075 3.02558C3.76475 2.99457 3.68339 2.97884 3.60132 2.97928C3.51924 2.97972 3.43805 2.99631 3.36239 3.02813C3.28673 3.05994 3.21808 3.10635 3.16035 3.16469C3.10262 3.22304 3.05695 3.29218 3.02595 3.36818C2.99494 3.44418 2.97921 3.52553 2.97965 3.60761L4.22965 3.60094ZM3.18965 8.98761C3.20163 8.90593 3.1973 8.82268 3.17692 8.74268C3.15654 8.66268 3.12052 8.5875 3.07092 8.5215C3.02133 8.4555 2.95915 8.39998 2.88798 8.35814C2.81681 8.31631 2.73805 8.28899 2.65626 8.27776C2.57447 8.26653 2.49127 8.27162 2.41146 8.29273C2.33164 8.31383 2.2568 8.35055 2.19126 8.40074C2.12571 8.45094 2.07076 8.51362 2.02958 8.58517C1.9884 8.65672 1.9618 8.73572 1.95132 8.81761L3.18965 8.98761ZM15.7188 4.28178C12.5355 1.09844 7.39132 1.06511 4.22882 4.22844L5.11215 5.11178C7.77882 2.44594 12.1313 2.46178 14.8355 5.16511L15.7188 4.28178ZM4.28215 15.7184C7.46548 18.9018 12.6097 18.9351 15.7722 15.7718L14.8888 14.8884C12.2221 17.5543 7.86965 17.5384 5.16548 14.8351L4.28215 15.7184ZM15.7722 15.7718C18.9347 12.6093 18.9022 7.46511 15.7188 4.28178L14.8355 5.16511C17.5388 7.86928 17.5546 12.2218 14.8888 14.8884L15.7722 15.7718ZM4.22882 4.22844L3.17298 5.28344L4.05715 6.16678L5.11215 5.11178L4.22882 4.22844ZM3.61215 6.35094L5.73382 6.36094L5.73965 5.11094L3.61882 5.10094L3.61215 6.35094ZM4.24048 5.72261L4.22965 3.60094L2.97965 3.60761L2.99048 5.72844L4.24048 5.72261ZM1.95048 8.81678C1.77914 10.0689 1.90044 11.3438 2.30486 12.5411C2.70929 13.7385 3.38582 14.8258 4.28132 15.7176L5.16465 14.8343C4.40556 14.0788 3.83206 13.1575 3.48922 12.1428C3.14638 11.1282 3.04355 10.0479 3.18882 8.98678L1.95048 8.81678Z" fill="#FAFAFA"/>
</svg>
