<svg width="20" height="20" viewBox="0 0 20 20" fill="none" xmlns="http://www.w3.org/2000/svg">
<g clip-path="url(#clip0_657_58166)">
<path d="M1.71921 9.92756C1.81504 9.40256 2.23837 8.86673 2.92087 8.40256C4.15087 7.56923 5.55421 7.57256 6.96087 7.52089C7.42754 7.50423 8.67921 7.49756 9.99754 7.50089C11.3159 7.49756 12.5684 7.50339 13.0342 7.52089C14.44 7.57256 15.8442 7.56923 17.0742 8.40339C17.7575 8.86673 18.18 9.40339 18.2759 9.92839C18.3592 10.3784 18.3459 11.9234 18.2509 13.0142C18.2009 13.5892 18.1492 13.8692 18.0734 13.9867C17.8425 14.3417 17.1784 14.6409 16.2 14.8284C15.2825 15.0034 15.4192 15.0001 9.99754 15.0001C4.57587 15.0001 4.71254 15.0042 3.79504 14.8276C2.81671 14.6409 2.15254 14.3417 1.92171 13.9867C1.84587 13.8701 1.79421 13.5892 1.74421 13.0142C1.64921 11.9234 1.63587 10.3784 1.71921 9.92756Z" stroke="#FAFAFA" stroke-linecap="round" stroke-linejoin="round"/>
<path d="M3.74406 7.50021L4.83823 3.74187C4.93823 3.49187 5.13406 3.28354 5.4099 3.18937C8.1124 2.27021 11.8766 2.27021 14.5782 3.18937C14.8532 3.28354 15.0491 3.49187 15.1499 3.74187L16.2441 7.50021M2.0774 10.0002L3.3274 10.4169M17.9107 10.0002L16.6607 10.4169M6.66073 14.5835L6.86573 14.0719C7.1699 13.311 7.3224 12.9302 7.6399 12.7152C7.95656 12.5002 8.36656 12.5002 9.18656 12.5002H10.8016C11.6216 12.5002 12.0316 12.5002 12.3482 12.7152C12.6649 12.9302 12.8182 13.311 13.1232 14.0719L13.3274 14.5835M5.82906 15.4685V16.1369C5.82906 16.866 5.79656 17.0027 5.57656 17.2152C5.48855 17.2934 5.39113 17.3603 5.28656 17.4144C5.11906 17.4977 5.06323 17.5002 3.7674 17.5002C2.4424 17.5002 2.41823 17.4985 2.21406 17.4069C2.09459 17.3506 1.98643 17.2729 1.8949 17.1777C1.67656 16.9152 1.66573 16.8377 1.66406 15.4552V12.5002M14.1591 15.4685V16.1369C14.1591 16.866 14.1916 17.0027 14.4116 17.2152C14.4757 17.2777 14.6066 17.3669 14.7016 17.4144C14.8691 17.4977 14.9249 17.5002 16.2207 17.5002C17.5457 17.5002 17.5699 17.4985 17.7741 17.4069C17.8882 17.3552 18.0324 17.2519 18.0932 17.1777C18.3116 16.9152 18.3224 16.8377 18.3241 15.4552V12.5002M16.6607 7.50021L17.9107 7.08354M3.3274 7.50021L2.0774 7.08354" stroke="#FAFAFA" stroke-linecap="round" stroke-linejoin="round"/>
</g>
<defs>
<clipPath id="clip0_657_58166">
<rect width="20" height="20" fill="white"/>
</clipPath>
</defs>
</svg>
