<svg width="20" height="20" viewBox="0 0 20 20" fill="none" xmlns="http://www.w3.org/2000/svg">
<path d="M2.4974 17.1583L5.48906 14.1667H14.9974C15.4394 14.1667 15.8633 13.9911 16.1759 13.6785C16.4885 13.366 16.6641 12.942 16.6641 12.5V5C16.6641 4.55797 16.4885 4.13405 16.1759 3.82149C15.8633 3.50893 15.4394 3.33333 14.9974 3.33333H4.16406C3.72203 3.33333 3.29811 3.50893 2.98555 3.82149C2.67299 4.13405 2.4974 4.55797 2.4974 5V17.1583ZM2.4974 18.3333H1.66406V5C1.66406 4.33696 1.92745 3.70107 2.3963 3.23223C2.86514 2.76339 3.50102 2.5 4.16406 2.5H14.9974C15.6604 2.5 16.2963 2.76339 16.7652 3.23223C17.234 3.70107 17.4974 4.33696 17.4974 5V12.5C17.4974 13.163 17.234 13.7989 16.7652 14.2678C16.2963 14.7366 15.6604 15 14.9974 15H5.83073L2.4974 18.3333Z" fill="#FAFAFA"/>
<path d="M9.64286 9.78571C9.46072 9.78571 9.30814 9.724 9.18514 9.60057C9.06215 9.47714 9.00043 9.32457 9 9.14285V4.64286C9 4.46072 9.06172 4.30814 9.18514 4.18514C9.30857 4.06215 9.46114 4.00043 9.64286 4C9.82457 3.99957 9.97736 4.06129 10.1012 4.18514C10.2251 4.309 10.2866 4.46157 10.2857 4.64286V9.14285C10.2857 9.325 10.224 9.47778 10.1006 9.60121C9.97714 9.72464 9.82457 9.78614 9.64286 9.78571ZM9.64286 13C9.46072 13 9.30814 12.9383 9.18514 12.8148C9.06215 12.6914 9.00043 12.5388 9 12.3571C8.99957 12.1754 9.06129 12.0228 9.18514 11.8994C9.309 11.776 9.46157 11.7143 9.64286 11.7143C9.82414 11.7143 9.97693 11.776 10.1012 11.8994C10.2255 12.0228 10.287 12.1754 10.2857 12.3571C10.2844 12.5388 10.2227 12.6916 10.1006 12.8155C9.97843 12.9393 9.82586 13.0008 9.64286 13Z" fill="#FAFAFA"/>
</svg>
