<svg width="20" height="20" viewBox="0 0 20 20" fill="none" xmlns="http://www.w3.org/2000/svg">
<path d="M11.2526 6.81786V4.01286C11.2526 3.81453 11.3176 3.65148 11.4476 3.5237C11.5776 3.39592 11.7387 3.33203 11.9309 3.33203H15.9976C16.1904 3.33203 16.3504 3.39592 16.4776 3.5237C16.6048 3.65148 16.6687 3.81453 16.6693 4.01286V6.81786C16.6693 7.01675 16.6043 7.17981 16.4743 7.30703C16.3443 7.43481 16.1832 7.4987 15.9909 7.4987H11.9243C11.732 7.4987 11.572 7.43481 11.4443 7.30703C11.3165 7.17925 11.2526 7.0162 11.2526 6.81786ZM3.33594 9.33203V3.9987C3.33594 3.80981 3.40094 3.65148 3.53094 3.5237C3.66094 3.39592 3.82205 3.33203 4.01427 3.33203H8.08094C8.27372 3.33203 8.43372 3.39592 8.56094 3.5237C8.68816 3.65148 8.75205 3.80981 8.7526 3.9987V9.33203C8.7526 9.52092 8.6876 9.67925 8.5576 9.80703C8.4276 9.93481 8.26649 9.9987 8.07427 9.9987H4.0076C3.81538 9.9987 3.65538 9.93481 3.5276 9.80703C3.39983 9.67925 3.33594 9.52092 3.33594 9.33203ZM11.2526 15.9987V10.6654C11.2526 10.4765 11.3176 10.3181 11.4476 10.1904C11.5776 10.0626 11.7387 9.9987 11.9309 9.9987H15.9976C16.1904 9.9987 16.3504 10.0626 16.4776 10.1904C16.6048 10.3181 16.6687 10.4765 16.6693 10.6654V15.9987C16.6693 16.1876 16.6043 16.3459 16.4743 16.4737C16.3443 16.6015 16.1832 16.6654 15.9909 16.6654H11.9243C11.732 16.6654 11.572 16.6015 11.4443 16.4737C11.3165 16.3459 11.2526 16.1876 11.2526 15.9987ZM3.33594 15.9845V13.1795C3.33594 12.9812 3.40094 12.8181 3.53094 12.6904C3.66094 12.5626 3.82205 12.4987 4.01427 12.4987H8.08094C8.27372 12.4987 8.43372 12.5626 8.56094 12.6904C8.68816 12.8181 8.75205 12.9812 8.7526 13.1795V15.9845C8.7526 16.1834 8.6876 16.3465 8.5576 16.4737C8.4276 16.6015 8.26649 16.6654 8.07427 16.6654H4.0076C3.81538 16.6654 3.65538 16.6015 3.5276 16.4737C3.39983 16.3459 3.33594 16.1829 3.33594 15.9845ZM4.16927 9.16536H7.91927V4.16536H4.16927V9.16536ZM12.0859 15.832H15.8359V10.832H12.0859V15.832ZM12.0859 6.66536H15.8359V4.16536H12.0859V6.66536ZM4.16927 15.832H7.91927V13.332H4.16927V15.832Z" fill="#FAFAFA"/>
</svg>
