<svg width="22" height="16" viewBox="0 0 22 16" fill="none" xmlns="http://www.w3.org/2000/svg">
<path opacity="0.587821" d="M16.3389 4.44531C17.8115 4.44549 19.0049 5.63965 19.0049 7.1123C19.0047 8.58481 17.8114 9.77814 16.3389 9.77832C14.8662 9.77832 13.6721 8.58491 13.6719 7.1123C13.6719 5.63955 14.8661 4.44531 16.3389 4.44531ZM8.33691 0C10.3005 5.86975e-05 11.8926 1.59202 11.8926 3.55566C11.8925 5.51926 10.3005 7.11127 8.33691 7.11133C6.37327 7.11133 4.78131 5.51929 4.78125 3.55566C4.78125 1.59198 6.37323 0 8.33691 0Z" fill="#913B81"/>
<path d="M15.9928 10.6729C19.0172 10.7085 21.4856 12.24 21.6715 15.4727C21.6789 15.6038 21.6704 16.0059 21.189 16.0059H17.7701C17.77 14.0049 17.1086 12.1584 15.9928 10.6729ZM8.32967 8.89062C12.5854 8.89075 16.0819 10.9295 16.3424 15.291C16.3527 15.4652 16.3416 16.002 15.6744 16.002H0.990801C0.767924 16.002 0.325748 15.5212 0.344317 15.29C0.688856 11.0476 4.13284 8.89062 8.32967 8.89062Z" fill="#913B81"/>
</svg>
