<svg width="40" height="41" viewBox="0 0 40 41" fill="none" xmlns="http://www.w3.org/2000/svg">
<circle cx="32.5" cy="6.5" r="6.5" fill="white"/>
<circle cx="32.5017" cy="6.50174" r="3.61111" fill="#68B752"/>
<path opacity="0.21" d="M24.667 1C33.1351 1.00018 39.9998 7.8649 40 16.333V25.667C39.9998 34.1351 33.1351 40.9998 24.667 41H15.333C6.8649 40.9998 0.000176403 34.1351 0 25.667V16.333C0.000175759 7.8649 6.8649 1.00018 15.333 1H24.667Z" fill="#4F913C" fill-opacity="0.5"/>
<path fill-rule="evenodd" clip-rule="evenodd" d="M20.0052 11.0078C25.5266 11.0078 30.0026 15.4838 30.0026 21.0052C30.0026 26.5266 25.5266 31.0026 20.0052 31.0026C14.4838 31.0026 10.0078 26.5266 10.0078 21.0052C10.0078 15.4838 14.4838 11.0078 20.0052 11.0078ZM12.0073 21.0052C12.0073 25.0837 15.0602 28.4492 19.0054 28.9412V23.8337C17.9805 23.4715 17.2114 22.568 17.0413 21.4667L12.0215 20.5254C12.0121 20.6841 12.0073 20.8441 12.0073 21.0052ZM27.9889 20.5254L22.9691 21.4667C22.799 22.568 22.0298 23.4715 21.0049 23.8337V28.9412C24.9503 28.4492 28.0031 25.0837 28.0031 21.0052C28.0031 20.8441 27.9984 20.6842 27.9889 20.5254ZM20.0052 13.0073C16.441 13.0073 13.4213 15.3387 12.3881 18.5598L17.4099 19.501C17.9291 18.6071 18.897 18.006 20.0052 18.006C21.1135 18.006 22.0813 18.6071 22.6005 19.501L27.6223 18.5598C26.5891 15.3387 23.5694 13.0073 20.0052 13.0073Z" fill="#4F913C"/>
</svg>
