<svg width="40" height="40" viewBox="0 0 40 40" fill="none" xmlns="http://www.w3.org/2000/svg">
<path opacity="0.21" d="M24.667 0C33.1351 0.000175748 39.9998 6.8649 40 15.333V24.667C39.9998 33.1351 33.1351 39.9998 24.667 40H15.333C6.8649 39.9998 0.000176403 33.1351 0 24.667V15.333C0.000175759 6.8649 6.8649 0.000176392 15.333 0H24.667Z" fill="#E38CD2"/>
<path opacity="0.587821" d="M25.3389 16.4453C26.8115 16.4455 28.0049 17.6397 28.0049 19.1123C28.0047 20.5848 26.8114 21.7781 25.3389 21.7783C23.8662 21.7783 22.6721 20.5849 22.6719 19.1123C22.6719 17.6395 23.8661 16.4453 25.3389 16.4453ZM17.3369 12C19.3005 12.0001 20.8926 13.592 20.8926 15.5557C20.8925 17.5193 19.3005 19.1113 17.3369 19.1113C15.3733 19.1113 13.7813 17.5193 13.7812 15.5557C13.7812 13.592 15.3732 12 17.3369 12Z" fill="#913B81"/>
<path d="M24.9928 22.6729C28.0172 22.7085 30.4856 24.24 30.6715 27.4727C30.6789 27.6038 30.6704 28.0059 30.189 28.0059H26.7701C26.77 26.0049 26.1086 24.1584 24.9928 22.6729ZM17.3297 20.8906C21.5854 20.8908 25.0819 22.9295 25.3424 27.291C25.3527 27.4652 25.3416 28.002 24.6744 28.002H9.9908C9.76792 28.002 9.32575 27.5212 9.34432 27.29C9.68886 23.0476 13.1328 20.8906 17.3297 20.8906Z" fill="#913B81"/>
</svg>
