<svg width="40" height="40" viewBox="0 0 40 40" fill="none" xmlns="http://www.w3.org/2000/svg">
<path opacity="0.21" d="M24.667 0C33.1351 0.000175748 39.9998 6.8649 40 15.333V24.667C39.9998 33.1351 33.1351 39.9998 24.667 40H15.333C6.8649 39.9998 0.000176403 33.1351 0 24.667V15.333C0.000175759 6.8649 6.8649 0.000176392 15.333 0H24.667Z" fill="#4F913C" fill-opacity="0.5"/>
<path fill-rule="evenodd" clip-rule="evenodd" d="M20.0052 10.0078C25.5266 10.0078 30.0026 14.4838 30.0026 20.0052C30.0026 25.5266 25.5266 30.0026 20.0052 30.0026C14.4838 30.0026 10.0078 25.5266 10.0078 20.0052C10.0078 14.4838 14.4838 10.0078 20.0052 10.0078ZM12.0073 20.0052C12.0073 24.0837 15.0602 27.4492 19.0054 27.9412V22.8337C17.9805 22.4715 17.2114 21.568 17.0413 20.4667L12.0215 19.5254C12.0121 19.6841 12.0073 19.8441 12.0073 20.0052ZM27.9889 19.5254L22.9691 20.4667C22.799 21.568 22.0298 22.4715 21.0049 22.8337V27.9412C24.9503 27.4492 28.0031 24.0837 28.0031 20.0052C28.0031 19.8441 27.9984 19.6842 27.9889 19.5254ZM20.0052 12.0073C16.441 12.0073 13.4213 14.3387 12.3881 17.5598L17.4099 18.501C17.9291 17.6071 18.897 17.006 20.0052 17.006C21.1135 17.006 22.0813 17.6071 22.6005 18.501L27.6223 17.5598C26.5891 14.3387 23.5694 12.0073 20.0052 12.0073Z" fill="#4F913C"/>
</svg>
