<svg width="20" height="20" viewBox="0 0 20 20" fill="none" xmlns="http://www.w3.org/2000/svg">
<path d="M9.9974 1.66797C5.3949 1.66797 1.66406 5.3988 1.66406 10.0013C1.66406 14.6038 5.3949 18.3346 9.9974 18.3346C14.5999 18.3346 18.3307 14.6038 18.3307 10.0013C18.3307 5.3988 14.5999 1.66797 9.9974 1.66797Z" stroke="#FAFAFA" stroke-linecap="round" stroke-linejoin="round"/>
<path d="M3.55469 15.2883C3.55469 15.2883 5.41219 12.9167 9.99552 12.9167C14.5789 12.9167 16.4372 15.2883 16.4372 15.2883M9.99552 10C10.6586 10 11.2944 9.73661 11.7633 9.26777C12.2321 8.79893 12.4955 8.16304 12.4955 7.5C12.4955 6.83696 12.2321 6.20107 11.7633 5.73223C11.2944 5.26339 10.6586 5 9.99552 5C9.33248 5 8.69659 5.26339 8.22775 5.73223C7.75891 6.20107 7.49552 6.83696 7.49552 7.5C7.49552 8.16304 7.75891 8.79893 8.22775 9.26777C8.69659 9.73661 9.33248 10 9.99552 10Z" stroke="#FAFAFA" stroke-linecap="round" stroke-linejoin="round"/>
</svg>
