<svg width="20" height="20" viewBox="0 0 20 20" fill="none" xmlns="http://www.w3.org/2000/svg">
<g clip-path="url(#clip0_657_58240)">
<path d="M6.86125 13.125L13.1113 6.875M9.75875 1.875L11.9688 3.2L14.535 3.42625L15.5438 5.7975L17.4863 7.4875L16.9088 10L17.4863 12.5112L15.5438 14.2025L14.535 16.5737L11.9688 16.8L9.75875 18.125L7.55 16.8L4.9825 16.5737L3.975 14.2025L2.03125 12.5112L2.60875 10L2.03125 7.48875L3.975 5.7975L4.9825 3.42625L7.55 3.2L9.75875 1.875ZM8.73625 8.125C8.73625 8.45652 8.60455 8.77446 8.37013 9.00888C8.13571 9.2433 7.81777 9.375 7.48625 9.375C7.15473 9.375 6.83679 9.2433 6.60237 9.00888C6.36795 8.77446 6.23625 8.45652 6.23625 8.125C6.23625 7.79348 6.36795 7.47554 6.60237 7.24112C6.83679 7.0067 7.15473 6.875 7.48625 6.875C7.81777 6.875 8.13571 7.0067 8.37013 7.24112C8.60455 7.47554 8.73625 7.79348 8.73625 8.125ZM13.7363 12.5C13.7363 12.8315 13.6046 13.1495 13.3701 13.3839C13.1357 13.6183 12.8178 13.75 12.4863 13.75C12.1547 13.75 11.8368 13.6183 11.6024 13.3839C11.3679 13.1495 11.2362 12.8315 11.2362 12.5C11.2362 12.1685 11.3679 11.8505 11.6024 11.6161C11.8368 11.3817 12.1547 11.25 12.4863 11.25C12.8178 11.25 13.1357 11.3817 13.3701 11.6161C13.6046 11.8505 13.7363 12.1685 13.7363 12.5Z" stroke="#FAFAFA"/>
</g>
<defs>
<clipPath id="clip0_657_58240">
<rect width="20" height="20" fill="white"/>
</clipPath>
</defs>
</svg>
