<svg width="20" height="20" viewBox="0 0 20 20" fill="none" xmlns="http://www.w3.org/2000/svg">
<g clip-path="url(#clip0_657_58273)">
<path d="M16.0966 13.3118C16.267 13.4822 16.3523 13.7095 16.3523 13.9084C16.3239 14.3913 15.983 14.8175 15.4148 14.8175H4.53409C3.96591 14.8175 3.625 14.3913 3.625 13.9084C3.59659 13.7095 3.68182 13.4822 3.85227 13.3118C4.39205 12.7152 5.44318 11.8345 5.44318 8.90838C5.44318 6.72088 6.97727 4.95952 9.07955 4.50497V3.90838C9.07955 3.42543 9.47727 2.99929 9.98864 2.99929C10.4716 2.99929 10.8693 3.42543 10.8693 3.90838V4.50497C12.9716 4.95952 14.5057 6.72088 14.5057 8.90838C14.5057 11.8345 15.5568 12.7152 16.0966 13.3118ZM5.52841 13.4538H14.4205C13.8239 12.6868 13.1705 11.3516 13.142 8.93679C13.142 8.93679 13.1705 8.93679 13.1705 8.90838C13.1705 7.17543 11.7216 5.72656 9.98864 5.72656C8.22727 5.72656 6.80682 7.17543 6.80682 8.90838C6.80682 8.93679 6.80682 8.93679 6.80682 8.93679C6.77841 11.3516 6.125 12.6868 5.52841 13.4538ZM9.98864 17.5447C8.96591 17.5447 8.17045 16.7493 8.17045 15.7266H11.7784C11.7784 16.7493 10.983 17.5447 9.98864 17.5447Z" fill="#FAFAFA"/>
</g>
<defs>
<clipPath id="clip0_657_58273">
<rect width="20" height="20" fill="white"/>
</clipPath>
</defs>
</svg>
