<svg width="20" height="20" viewBox="0 0 20 20" fill="none" xmlns="http://www.w3.org/2000/svg">
<g clip-path="url(#clip0_657_58209)">
<path d="M7.49219 17.5H12.4922M7.49219 17.5V13.3333M7.49219 17.5H2.99219C2.85958 17.5 2.7324 17.4473 2.63863 17.3536C2.54487 17.2598 2.49219 17.1326 2.49219 17V13.8333C2.49219 13.7007 2.54487 13.5735 2.63863 13.4798C2.7324 13.386 2.85958 13.3333 2.99219 13.3333H7.49219M12.4922 17.5V7.5M12.4922 17.5H16.9922C17.1248 17.5 17.252 17.4473 17.3457 17.3536C17.4395 17.2598 17.4922 17.1326 17.4922 17V3C17.4922 2.86739 17.4395 2.74021 17.3457 2.64645C17.252 2.55268 17.1248 2.5 16.9922 2.5H12.9922C12.8596 2.5 12.7324 2.55268 12.6386 2.64645C12.5449 2.74021 12.4922 2.86739 12.4922 3V7.5M7.49219 13.3333V8C7.49219 7.86739 7.54487 7.74021 7.63863 7.64645C7.7324 7.55268 7.85958 7.5 7.99219 7.5H12.4922" stroke="#FAFAFA"/>
</g>
<defs>
<clipPath id="clip0_657_58209">
<rect width="20" height="20" fill="white"/>
</clipPath>
</defs>
</svg>
