<svg width="20" height="20" viewBox="0 0 20 20" fill="none" xmlns="http://www.w3.org/2000/svg">
<path d="M9.9974 11.668C9.76129 11.668 9.56351 11.588 9.40407 11.428C9.24462 11.268 9.16462 11.0702 9.16407 10.8346V5.00131C9.16407 4.76519 9.24407 4.56742 9.40407 4.40797C9.56407 4.24853 9.76184 4.16853 9.9974 4.16797C10.233 4.16742 10.431 4.24742 10.5916 4.40797C10.7521 4.56853 10.8318 4.7663 10.8307 5.00131V10.8346C10.8307 11.0708 10.7507 11.2688 10.5907 11.4288C10.4307 11.5888 10.233 11.6685 9.9974 11.668ZM9.9974 15.8346C9.76129 15.8346 9.56351 15.7546 9.40407 15.5946C9.24462 15.4346 9.16462 15.2369 9.16407 15.0013C9.16351 14.7658 9.24351 14.568 9.40407 14.408C9.56462 14.248 9.7624 14.168 9.9974 14.168C10.2324 14.168 10.4305 14.248 10.5916 14.408C10.7527 14.568 10.8324 14.7658 10.8307 15.0013C10.8291 15.2369 10.7491 15.4349 10.5907 15.5955C10.4324 15.756 10.2346 15.8358 9.9974 15.8346Z" fill="#FAFAFA"/>
<circle cx="10" cy="10" r="8.5" stroke="#FAFAFA"/>
</svg>
