<svg width="21" height="20" viewBox="0 0 21 20" fill="none" xmlns="http://www.w3.org/2000/svg">
<g clip-path="url(#clip0_657_58157)">
<path d="M2.57812 4.76562C3.38021 3.96354 4.35417 3.5625 5.5 3.5625C6.64583 3.5625 7.61979 3.96354 8.42188 4.76562C9.22396 5.56771 9.625 6.54167 9.625 7.6875C9.625 9.09115 9.05208 10.2083 7.90625 11.0391C8.96615 11.5547 9.76823 12.2995 10.3125 13.2734C10.8568 12.2995 11.6589 11.5547 12.7188 11.0391C11.5729 10.2083 11 9.09115 11 7.6875C11 6.54167 11.401 5.56771 12.2031 4.76562C13.0052 3.96354 13.9792 3.5625 15.125 3.5625C16.2708 3.5625 17.2448 3.96354 18.0469 4.76562C18.849 5.56771 19.25 6.54167 19.25 7.6875C19.25 9.09115 18.6771 10.2083 17.5312 11.0391C18.4766 11.4974 19.2214 12.1706 19.7656 13.0586C20.3385 13.918 20.625 14.8776 20.625 15.9375H19.25C19.25 14.7917 18.849 13.8177 18.0469 13.0156C17.2448 12.2135 16.2708 11.8125 15.125 11.8125C13.9792 11.8125 13.0052 12.2135 12.2031 13.0156C11.401 13.8177 11 14.7917 11 15.9375H9.625C9.625 14.7917 9.22396 13.8177 8.42188 13.0156C7.61979 12.2135 6.64583 11.8125 5.5 11.8125C4.35417 11.8125 3.38021 12.2135 2.57812 13.0156C1.77604 13.8177 1.375 14.7917 1.375 15.9375H0C0 14.8776 0.272135 13.918 0.816406 13.0586C1.38932 12.1706 2.14844 11.4974 3.09375 11.0391C1.94792 10.2083 1.375 9.09115 1.375 7.6875C1.375 6.54167 1.77604 5.56771 2.57812 4.76562ZM7.43359 5.75391C6.91797 5.20964 6.27344 4.9375 5.5 4.9375C4.72656 4.9375 4.06771 5.20964 3.52344 5.75391C3.00781 6.26953 2.75 6.91406 2.75 7.6875C2.75 8.46094 3.00781 9.11979 3.52344 9.66406C4.06771 10.1797 4.72656 10.4375 5.5 10.4375C6.27344 10.4375 6.91797 10.1797 7.43359 9.66406C7.97786 9.11979 8.25 8.46094 8.25 7.6875C8.25 6.91406 7.97786 6.26953 7.43359 5.75391ZM17.0586 5.75391C16.543 5.20964 15.8984 4.9375 15.125 4.9375C14.3516 4.9375 13.6927 5.20964 13.1484 5.75391C12.6328 6.26953 12.375 6.91406 12.375 7.6875C12.375 8.46094 12.6328 9.11979 13.1484 9.66406C13.6927 10.1797 14.3516 10.4375 15.125 10.4375C15.8984 10.4375 16.543 10.1797 17.0586 9.66406C17.6029 9.11979 17.875 8.46094 17.875 7.6875C17.875 6.91406 17.6029 6.26953 17.0586 5.75391Z" fill="#FAFAFA"/>
</g>
<defs>
<clipPath id="clip0_657_58157">
<rect width="21" height="20" fill="white"/>
</clipPath>
</defs>
</svg>
