<svg width="15" height="15" viewBox="0 0 15 15" fill="none" xmlns="http://www.w3.org/2000/svg">
<path d="M7.5 14C8.35374 14.001 9.19928 13.8334 9.98804 13.5067C10.7768 13.1799 11.4932 12.7006 12.0961 12.0961C12.7006 11.4932 13.1799 10.7768 13.5067 9.98804C13.8334 9.19928 14.001 8.35374 14 7.5C14.001 6.64625 13.8334 5.80072 13.5067 5.01196C13.1799 4.22321 12.7006 3.50678 12.0961 2.90385C11.4932 2.29941 10.7768 1.82005 9.98804 1.49333C9.19928 1.1666 8.35374 0.998952 7.5 1C6.64625 0.998952 5.80072 1.1666 5.01196 1.49333C4.22321 1.82005 3.50678 2.29941 2.90385 2.90385C2.29941 3.50678 1.82005 4.22321 1.49333 5.01196C1.1666 5.80072 0.998952 6.64625 1 7.5C0.998952 8.35374 1.1666 9.19928 1.49333 9.98804C1.82005 10.7768 2.29941 11.4932 2.90385 12.0961C3.50678 12.7006 4.22321 13.1799 5.01196 13.5067C5.80072 13.8334 6.64625 14.001 7.5 14Z" stroke="#4B545A" stroke-width="1.3" stroke-linejoin="round"/>
<path d="M4.89844 7.50078L6.84844 9.45078L10.7484 5.55078" stroke="#4B545A" stroke-width="1.3" stroke-linecap="round" stroke-linejoin="round"/>
</svg>
