<svg width="44" height="36" viewBox="0 0 44 36" fill="none" xmlns="http://www.w3.org/2000/svg">
<path fill-rule="evenodd" clip-rule="evenodd" d="M0.664062 5.00033C0.664062 2.60709 2.60416 0.666992 4.9974 0.666992H38.9974C41.3906 0.666992 43.3307 2.60709 43.3307 5.00033V31.667C43.3307 34.0602 41.3906 36.0003 38.9974 36.0003H4.9974C2.60416 36.0003 0.664062 34.0602 0.664062 31.667V5.00033ZM4.9974 2.66699C3.70873 2.66699 2.66406 3.71166 2.66406 5.00033V31.667C2.66406 32.9557 3.70873 34.0003 4.9974 34.0003H38.9974C40.2861 34.0003 41.3307 32.9557 41.3307 31.667V5.00033C41.3307 3.71166 40.2861 2.66699 38.9974 2.66699H4.9974Z" fill="#B2B9C4"/>
<ellipse cx="10.6615" cy="10.0003" rx="4.33333" ry="4.33333" fill="#B2B9C4"/>
<path d="M6.32812 28.334V26.3577C6.32812 25.9156 6.50372 25.4917 6.81628 25.1792L12.2044 19.791C12.8335 19.162 13.8457 19.1379 14.504 19.7363L15.8354 20.9466C16.4869 21.539 17.4869 21.5222 18.1183 20.9084L27.8165 11.4795C28.4699 10.8443 29.5124 10.8516 30.1568 11.496L37.84 19.1792C38.1525 19.4917 38.3281 19.9156 38.3281 20.3577V28.334C38.3281 29.2545 37.5819 30.0007 36.6615 30.0007H7.99479C7.07432 30.0007 6.32812 29.2545 6.32812 28.334Z" fill="#B2B9C4"/>
</svg>
