<svg width="16" height="16" viewBox="0 0 16 16" fill="none" xmlns="http://www.w3.org/2000/svg">
<path d="M13.3359 13.3334V6.08803L8.0026 2.88803L2.66927 6.08803V13.3334H5.33594V11.5C5.33594 10.7928 5.61689 10.1145 6.11699 9.61442C6.61708 9.11432 7.29536 8.83337 8.0026 8.83337C8.70985 8.83337 9.38813 9.11432 9.88822 9.61442C10.3883 10.1145 10.6693 10.7928 10.6693 11.5V13.3334H13.3359ZM9.33594 14.6667V11.5C9.33594 11.1464 9.19546 10.8073 8.94541 10.5572C8.69536 10.3072 8.35623 10.1667 8.0026 10.1667C7.64898 10.1667 7.30984 10.3072 7.0598 10.5572C6.80975 10.8073 6.66927 11.1464 6.66927 11.5V14.6667H2.66927C2.31565 14.6667 1.97651 14.5262 1.72646 14.2762C1.47641 14.0261 1.33594 13.687 1.33594 13.3334V6.08803C1.33594 5.85779 1.39556 5.63146 1.509 5.4311C1.62244 5.23073 1.78584 5.06316 1.98327 4.9447L7.3166 1.7447C7.52383 1.62037 7.76094 1.55469 8.0026 1.55469C8.24427 1.55469 8.48138 1.62037 8.6886 1.7447L14.0219 4.9447C14.2194 5.06316 14.3828 5.23073 14.4962 5.4311C14.6097 5.63146 14.6693 5.85779 14.6693 6.08803V13.3334C14.6693 13.687 14.5288 14.0261 14.2787 14.2762C14.0287 14.5262 13.6896 14.6667 13.3359 14.6667H9.33594Z" fill="#21272A"/>
</svg>
