<svg width="18" height="18" viewBox="0 0 18 18" fill="none" xmlns="http://www.w3.org/2000/svg">
<path fill-rule="evenodd" clip-rule="evenodd" d="M15.8527 8.99972V3.85686C15.8527 3.40221 15.6721 2.96617 15.3506 2.64468C15.0291 2.32319 14.593 2.14258 14.1384 2.14258H8.99554C8.54088 2.14258 8.10484 2.32319 7.78335 2.64468C7.46186 2.96617 7.28125 3.40221 7.28125 3.85686V8.99972C7.28125 9.45438 7.46186 9.89041 7.78335 10.2119C8.10484 10.5334 8.54088 10.714 8.99554 10.714H14.1384C14.593 10.714 15.0291 10.5334 15.3506 10.2119C15.6721 9.89041 15.8527 9.45438 15.8527 8.99972Z" stroke="#1D1D1F" stroke-opacity="0.54902" stroke-width="0.857143" stroke-linecap="round" stroke-linejoin="round"/>
<path d="M5.5692 7.28711H3.85491C3.40025 7.28711 2.96422 7.46772 2.64273 7.78921C2.32124 8.1107 2.14063 8.54674 2.14062 9.00139V14.1443C2.14063 14.5989 2.32124 15.0349 2.64273 15.3564C2.96422 15.6779 3.40025 15.8585 3.85491 15.8585H3.85748L9.00034 15.85C9.45455 15.8493 9.88992 15.6684 10.2109 15.347C10.5318 15.0255 10.7121 14.5899 10.7121 14.1357V12.4274M6.42634 10.7157H3.85491" stroke="#1D1D1F" stroke-opacity="0.54902" stroke-width="0.857143" stroke-linecap="round" stroke-linejoin="round"/>
<path d="M7.71094 12L6.85379 12.8571C6.56808 13.1429 5.85379 13.5714 4.71094 14.1429" stroke="#1D1D1F" stroke-opacity="0.54902" stroke-width="0.857143" stroke-linecap="round" stroke-linejoin="round"/>
<path d="M4.71094 10.7171C4.99722 11.7171 5.42579 12.4311 5.99665 12.8591C6.85379 13.5003 7.28237 13.7146 8.13951 14.1431M8.99665 9.00028L11.5681 3.85742L14.1395 9.00028M13.2824 7.28599H9.85379" stroke="#1D1D1F" stroke-opacity="0.54902" stroke-width="0.857143" stroke-linecap="round" stroke-linejoin="round"/>
</svg>
