<svg width="13" height="13" viewBox="0 0 13 13" fill="none" xmlns="http://www.w3.org/2000/svg">
<path d="M6.5 7.41L8.385 9.295C8.50416 9.41416 8.65583 9.47375 8.84 9.47375C9.02417 9.47375 9.17583 9.41416 9.295 9.295C9.41416 9.17583 9.47375 9.02416 9.47375 8.84C9.47375 8.65583 9.41416 8.50416 9.295 8.385L7.41 6.5L9.295 4.615C9.41416 4.49583 9.47375 4.34416 9.47375 4.16C9.47375 3.97583 9.41416 3.82417 9.295 3.705C9.17583 3.58583 9.02417 3.52625 8.84 3.52625C8.65583 3.52625 8.50416 3.58583 8.385 3.705L6.5 5.59L4.615 3.705C4.49583 3.58583 4.34417 3.52625 4.16 3.52625C3.97583 3.52625 3.82417 3.58583 3.705 3.705C3.58583 3.82417 3.52625 3.97583 3.52625 4.16C3.52625 4.34416 3.58583 4.49583 3.705 4.615L5.59 6.5L3.705 8.385C3.58583 8.50416 3.52625 8.65583 3.52625 8.84C3.52625 9.02416 3.58583 9.17583 3.705 9.295C3.82417 9.41416 3.97583 9.47375 4.16 9.47375C4.34417 9.47375 4.49583 9.41416 4.615 9.295L6.5 7.41ZM6.5 13C5.60083 13 4.75583 12.8293 3.965 12.4878C3.17417 12.1463 2.48625 11.6833 1.90125 11.0987C1.31625 10.5142 0.853234 9.82626 0.512201 9.035C0.171167 8.24373 0.000434156 7.39873 8.22784e-07 6.5C-0.00043251 5.60126 0.170301 4.75627 0.512201 3.965C0.854101 3.17373 1.31712 2.48582 1.90125 1.90125C2.48538 1.31668 3.1733 0.853666 3.965 0.5122C4.7567 0.170733 5.6017 0 6.5 0C7.3983 0 8.2433 0.170733 9.035 0.5122C9.8267 0.853666 10.5146 1.31668 11.0987 1.90125C11.6829 2.48582 12.1461 3.17373 12.4884 3.965C12.8308 4.75627 13.0013 5.60126 13 6.5C12.9987 7.39873 12.828 8.24373 12.4878 9.035C12.1476 9.82626 11.6846 10.5142 11.0987 11.0987C10.5129 11.6833 9.82496 12.1465 9.035 12.4884C8.24503 12.8303 7.40003 13.0009 6.5 13ZM6.5 11.7C7.95166 11.7 9.18125 11.1962 10.1887 10.1887C11.1962 9.18125 11.7 7.95166 11.7 6.5C11.7 5.04833 11.1962 3.81875 10.1887 2.81125C9.18125 1.80375 7.95166 1.3 6.5 1.3C5.04833 1.3 3.81875 1.80375 2.81125 2.81125C1.80375 3.81875 1.3 5.04833 1.3 6.5C1.3 7.95166 1.80375 9.18125 2.81125 10.1887C3.81875 11.1962 5.04833 11.7 6.5 11.7Z" fill="#4B545A"/>
</svg>
