<svg width="349" height="279" viewBox="0 0 349 279" fill="none" xmlns="http://www.w3.org/2000/svg">
<path d="M46.2889 102.533C34.6323 110.14 27.9643 118.481 24.8377 126.965C21.7113 135.448 22.1116 144.114 24.6616 152.396C29.7669 168.98 43.475 183.976 54.5781 192.716C71.7579 206.08 85.1187 212.189 97.0383 214.573C108.962 216.957 119.475 215.623 131.003 214.04C131.327 213.995 131.651 213.95 131.977 213.906C143.232 212.357 155.489 210.67 170.902 212.077C186.762 213.526 205.947 218.248 230.833 229.741C255.693 241.223 273.032 247.783 287.038 248.782C300.997 249.778 311.666 245.249 323.201 234.44C334.761 223.607 347.157 206.498 364.556 182.365L365.405 181.188C382.674 157.234 404.823 126.51 435.797 88.3585C467.258 49.6051 480.494 20.7083 482.398 -0.348701C483.349 -10.869 481.471 -19.4266 477.631 -26.2872C473.79 -33.1493 467.973 -38.3373 461.006 -42.0947C447.064 -49.6147 428.55 -51.3859 412.244 -49.3705C404.095 -48.3633 396.514 -46.4121 390.348 -43.772C384.172 -41.1282 379.456 -37.8103 376.984 -34.0947C371.894 -26.4412 365.761 -21.5689 358.697 -19.3271C351.636 -17.0862 343.685 -17.4865 334.979 -20.3033C317.58 -25.9324 297.08 -41.2384 274.412 -64.6571C263.183 -76.258 247.691 -79.8637 231.022 -77.9384C214.348 -76.0127 196.531 -68.554 180.727 -58.0726C164.924 -47.5914 151.161 -34.1053 142.584 -20.1531C134.003 -6.19366 130.647 8.17134 135.527 20.4602C140.482 32.9374 141.076 41.9782 138.171 49.1046C135.268 56.2254 128.906 61.3456 120.171 66.0649C113.987 69.4058 106.569 72.5675 98.2841 76.0986C94.8707 77.5535 91.3103 79.071 87.6285 80.6896C74.9963 86.2428 60.8968 93.0006 46.2889 102.533Z" stroke="#913B81" stroke-opacity="0.2" stroke-width="0.7181"/>
<path d="M67.006 100.853C56.5079 107.711 50.5063 115.229 47.6931 122.875C44.8802 130.519 45.2411 138.329 47.5383 145.797C52.1379 160.749 64.4863 174.276 74.4897 182.16C89.9693 194.217 102.004 199.727 112.739 201.878C123.477 204.03 132.945 202.828 143.332 201.401C143.624 201.361 143.917 201.32 144.211 201.28C154.352 199.884 165.4 198.363 179.293 199.635C193.59 200.945 210.882 205.209 233.311 215.583C255.715 225.945 271.335 231.863 283.948 232.766C296.514 233.665 306.119 229.586 316.506 219.84C326.918 210.071 338.084 194.64 353.76 172.868L354.524 171.807C370.082 150.198 390.038 122.481 417.945 88.0625C446.288 53.1048 458.206 27.0424 459.918 8.05529C460.773 -1.43003 459.081 -9.14386 455.624 -15.3271C452.166 -21.5118 446.928 -26.1888 440.655 -29.577C428.099 -36.3588 411.424 -37.9592 396.736 -36.1435C389.395 -35.2362 382.567 -33.4775 377.015 -31.098C371.454 -28.7147 367.211 -25.7254 364.99 -22.3818C360.4 -15.4721 354.868 -11.0711 348.494 -9.04648C342.123 -7.02285 334.95 -7.38625 327.099 -9.93039C311.412 -15.0139 292.933 -28.831 272.502 -49.9635C262.392 -60.4211 248.444 -63.6749 233.431 -61.9409C218.414 -60.2065 202.365 -53.4822 188.128 -44.03C173.893 -34.5781 161.496 -22.4161 153.773 -9.83467C146.045 2.75393 143.029 15.7017 147.422 26.7748C151.89 38.0361 152.429 46.2032 149.808 52.6442C147.188 59.0799 141.447 63.7036 133.574 67.9614C128.001 70.9756 121.314 73.8282 113.848 77.0133C110.773 78.3252 107.566 79.6936 104.249 81.1529C92.8679 86.1611 80.1657 92.2553 67.006 100.853Z" stroke="#913B81" stroke-opacity="0.2" stroke-width="0.7181"/>
<path d="M83.0703 99.6387C73.4721 105.902 67.9871 112.766 65.4161 119.743C62.8453 126.719 63.1737 133.846 65.2721 140.662C69.4743 154.311 80.7606 166.661 89.9062 173.86C104.06 184.869 115.062 189.898 124.873 191.86C134.688 193.823 143.343 192.725 152.843 191.42C153.111 191.384 153.379 191.347 153.648 191.31C162.923 190.033 173.031 188.642 185.74 189.803C198.82 190.997 214.638 194.892 235.153 204.366C255.642 213.829 269.923 219.23 281.452 220.053C292.935 220.872 301.711 217.149 311.208 208.249C320.73 199.327 330.942 185.233 345.283 165.342L345.982 164.371C360.214 144.63 378.469 119.308 403.997 87.8638C429.923 55.9286 440.822 32.1256 442.389 14.7905C443.172 6.13116 441.626 -0.908513 438.469 -6.55006C435.31 -12.1931 430.525 -16.4609 424.793 -19.5529C413.317 -25.7423 398.074 -27.2022 384.643 -25.5422C377.932 -24.7127 371.69 -23.1059 366.614 -20.9328C361.53 -18.756 357.656 -16.0278 355.629 -12.9804C351.427 -6.66333 346.362 -2.63728 340.524 -0.78455C334.689 1.06722 328.122 0.735118 320.938 -1.58926C306.584 -6.23329 289.68 -18.857 270.997 -38.1593C261.76 -47.7019 249.014 -50.6713 235.289 -49.0862C221.561 -47.5006 206.886 -41.3583 193.867 -32.7239C180.849 -24.0899 169.513 -12.9817 162.45 -1.49238C155.383 10.0041 152.628 21.821 156.64 31.9224C160.726 42.2121 161.221 49.6816 158.818 55.5766C156.417 61.466 151.158 65.6948 143.955 69.586C138.856 72.3409 132.738 74.9484 125.909 77.8591C123.097 79.0579 120.163 80.308 117.131 81.6411C106.722 86.2172 95.1052 91.7849 83.0703 99.6387Z" stroke="#913B81" stroke-opacity="0.2" stroke-width="0.7181"/>
<path d="M98.2424 97.9959C89.4979 103.706 84.5039 109.963 82.1637 116.319C79.8237 122.675 80.1228 129.17 82.0347 135.383C85.8637 147.827 96.1475 159.089 104.482 165.655C117.382 175.698 127.407 180.284 136.345 182.073C145.286 183.864 153.17 182.864 161.831 181.674C162.074 181.641 162.319 181.607 162.564 181.573C171.019 180.409 180.236 179.141 191.825 180.201C203.752 181.292 218.175 184.847 236.879 193.494C255.558 202.128 268.57 207.054 279.073 207.805C289.53 208.553 297.522 205.161 306.173 197.048C314.849 188.912 324.154 176.058 337.226 157.912L337.863 157.028C350.835 139.019 367.474 115.919 390.743 87.2348C414.372 58.1049 424.3 36.397 425.726 20.5922C426.439 12.698 425.03 6.28223 422.154 1.14158C419.278 -4.00052 414.921 -7.89042 409.699 -10.7093C399.246 -16.3525 385.358 -17.6857 373.12 -16.1729C367.004 -15.417 361.317 -13.9524 356.694 -11.9718C352.062 -9.98741 348.537 -7.50203 346.695 -4.72957C342.862 1.03774 338.24 4.71551 332.91 6.40784C327.583 8.09921 321.59 7.79456 315.037 5.67206C301.944 1.43175 286.53 -10.0906 269.496 -27.702C261.084 -36.3992 249.477 -39.108 236.973 -37.6638C224.465 -36.2192 211.093 -30.6194 199.229 -22.7456C187.366 -14.8721 177.037 -4.74247 170.603 5.73362C164.165 16.2168 161.659 26.9861 165.312 36.1885C169.039 45.5792 169.494 52.4027 167.299 57.7911C165.107 63.1741 160.305 67.0359 153.738 70.5862C149.088 73.0997 143.51 75.4789 137.284 78.134C134.721 79.2272 132.048 80.3672 129.285 81.5826C119.797 85.756 109.21 90.8335 98.2424 97.9959Z" stroke="#913B81" stroke-opacity="0.2" stroke-width="0.7181"/>
<path d="M114.727 96.7338C106.907 101.847 102.445 107.447 100.356 113.133C98.2657 118.819 98.5335 124.631 100.243 130.193C103.669 141.335 112.867 151.423 120.323 157.306C131.866 166.306 140.833 170.413 148.823 172.017C156.818 173.621 163.868 172.727 171.618 171.662C171.836 171.632 172.055 171.602 172.275 171.572C179.841 170.53 188.093 169.394 198.468 170.346C209.147 171.326 222.059 174.515 238.801 182.268C255.519 190.009 267.158 194.422 276.55 195.096C285.895 195.766 293.036 192.734 300.771 185.47C308.53 178.183 316.853 166.67 328.55 150.409L329.12 149.616C340.726 133.48 355.613 112.781 376.432 87.0783C397.572 60.9793 406.448 41.5346 407.721 27.3826C408.357 20.3147 407.096 14.5727 404.526 9.97291C401.956 5.37169 398.062 1.88981 393.393 -0.634307C384.047 -5.68792 371.627 -6.8847 360.68 -5.53144C355.211 -4.85529 350.126 -3.54439 345.992 -1.77184C341.851 0.00449105 338.704 2.22748 337.062 4.70292C333.629 9.87627 329.486 13.1778 324.707 14.6967C319.931 16.2146 314.56 15.9394 308.689 14.0347C296.963 10.2299 283.162 -0.10353 267.915 -15.8893C260.396 -23.6736 250.021 -26.1014 238.84 -24.8099C227.654 -23.518 215.694 -18.5046 205.082 -11.4527C194.471 -4.40113 185.233 4.67121 179.48 14.0528C173.723 23.4414 171.488 33.079 174.752 41.3108C178.091 49.7305 178.502 55.8563 176.534 60.6975C174.568 65.5333 170.261 68.9987 164.383 72.1806C160.221 74.4332 155.226 76.5656 149.654 78.9444C147.361 79.9235 144.97 80.9444 142.498 82.0326C134.01 85.7708 124.538 90.3185 114.727 96.7338Z" stroke="#913B81" stroke-opacity="0.2" stroke-width="0.7181"/>
<path d="M132.064 95.4182C125.216 99.8916 121.312 104.788 119.484 109.756C117.655 114.724 117.888 119.802 119.384 124.664C122.381 134.407 130.435 143.232 136.966 148.379C147.078 156.254 154.931 159.846 161.926 161.247C168.925 162.649 175.097 161.867 181.89 160.933C182.082 160.907 182.275 160.881 182.467 160.854C189.099 159.941 196.336 158.945 205.435 159.778C214.8 160.635 226.122 163.428 240.8 170.216C255.452 176.992 265.647 180.851 273.869 181.439C282.045 182.024 288.293 179.375 295.066 173.02C301.864 166.643 309.158 156.566 319.413 142.326L319.913 141.631C330.087 127.502 343.139 109.377 361.39 86.8697C379.92 64.0186 387.695 47.0014 388.811 34.6239C389.369 28.4433 388.266 23.4253 386.019 19.4072C383.771 15.3877 380.365 12.3451 376.28 10.1388C368.099 5.72092 357.223 4.67434 347.634 5.8597C342.843 6.45189 338.39 7.59932 334.771 9.14981C331.144 10.7041 328.395 12.6464 326.962 14.8035C323.948 19.3402 320.31 22.2386 316.109 23.5726C311.912 24.9057 307.194 24.6637 302.043 22.9947C291.754 19.6613 279.653 10.6088 266.289 -3.21214C259.713 -10.014 250.634 -12.137 240.843 -11.0061C231.047 -9.87473 220.57 -5.48728 211.272 0.685442C201.975 6.85785 193.883 14.7978 188.843 23.0058C183.799 31.2209 181.847 39.6438 184.699 46.832C187.626 54.2083 187.991 59.5849 186.259 63.8393C184.529 68.0883 180.742 71.1292 175.587 73.917C171.937 75.8908 167.556 77.7596 162.671 79.8434C160.661 80.7007 158.566 81.5945 156.401 82.547C148.961 85.8204 140.662 89.8021 132.064 95.4182Z" stroke="#913B81" stroke-opacity="0.2" stroke-width="0.7181"/>
</svg>
